<svg width="24" height="24" viewBox="0 0 24 24" fill="none" xmlns="http://www.w3.org/2000/svg">
<path fill-rule="evenodd" clip-rule="evenodd" d="M16.6761 2.628C13.5299 1.92472 10.2672 1.92472 7.12106 2.628L6.78206 2.703C5.89684 2.90033 5.08375 3.33948 4.43332 3.97154C3.7829 4.60361 3.32065 5.40379 3.09806 6.283C2.30195 9.4257 2.30195 12.7173 3.09806 15.86C3.31036 16.6985 3.74083 17.4658 4.34573 18.0841C4.95063 18.7023 5.70841 19.1494 6.54206 19.38L7.00706 22.156C7.0219 22.2441 7.06011 22.3267 7.11769 22.3951C7.17528 22.4634 7.25014 22.5151 7.33448 22.5447C7.41883 22.5744 7.50957 22.5808 7.59725 22.5634C7.68494 22.5461 7.76637 22.5055 7.83306 22.446L10.5641 20.003C12.6141 20.1268 14.6714 19.9628 16.6761 19.516L17.0161 19.441C17.9013 19.2437 18.7144 18.8045 19.3648 18.1725C20.0152 17.5404 20.4775 16.7402 20.7001 15.861C21.4962 12.7183 21.4962 9.4267 20.7001 6.284C20.4774 5.40466 20.015 4.60439 19.3644 3.97231C18.7138 3.34024 17.9005 2.90117 17.0151 2.704L16.6761 2.628ZM7.96506 6.202C7.7792 6.17478 7.58964 6.2122 7.42806 6.308H7.41406C7.03906 6.528 6.70106 6.805 6.41306 7.131C6.17306 7.408 6.04306 7.688 6.00906 7.958C5.98906 8.118 6.00306 8.28 6.05006 8.433L6.06806 8.443C6.33806 9.236 6.69006 9.999 7.12006 10.717C7.67476 11.7253 8.35704 12.658 9.15006 13.492L9.17406 13.526L9.21206 13.554L9.23506 13.581L9.26306 13.605C10.1 14.4003 11.0349 15.0858 12.0451 15.645C13.2001 16.274 13.9011 16.571 14.3221 16.695V16.701C14.4451 16.739 14.5571 16.756 14.6701 16.756C15.0288 16.7303 15.3684 16.5844 15.6341 16.342C15.9591 16.054 16.2341 15.715 16.4481 15.338V15.331C16.6491 14.951 16.5811 14.593 16.2911 14.35C15.709 13.8404 15.0791 13.3883 14.4101 13C13.9621 12.757 13.5071 12.904 13.3231 13.15L12.9301 13.646C12.7281 13.892 12.3621 13.858 12.3621 13.858L12.3521 13.864C9.62106 13.167 8.89206 10.402 8.89206 10.402C8.89206 10.402 8.85806 10.026 9.11106 9.834L9.60306 9.438C9.83906 9.246 10.0031 8.792 9.75006 8.344C9.36264 7.67543 8.91154 7.04584 8.40306 6.464C8.29183 6.32738 8.13606 6.23427 7.96306 6.201M12.5791 5C12.4465 5 12.3193 5.05268 12.2255 5.14645C12.1317 5.24021 12.0791 5.36739 12.0791 5.5C12.0791 5.63261 12.1317 5.75978 12.2255 5.85355C12.3193 5.94732 12.4465 6 12.5791 6C13.8441 6 14.8941 6.413 15.7251 7.205C16.1521 7.638 16.4851 8.151 16.7031 8.713C16.9221 9.276 17.0221 9.877 16.9961 10.479C16.9933 10.5447 17.0035 10.6102 17.0261 10.6719C17.0487 10.7337 17.0832 10.7903 17.1277 10.8387C17.2175 10.9364 17.3425 10.9944 17.4751 11C17.6077 11.0056 17.7371 10.9582 17.8348 10.8684C17.9325 10.7786 17.9905 10.6536 17.9961 10.521C18.0259 9.78056 17.903 9.0419 17.6351 8.351C17.3659 7.65658 16.956 7.02536 16.4311 6.497L16.4211 6.487C15.3901 5.502 14.0851 5 12.5791 5ZM12.5451 6.644C12.4125 6.644 12.2853 6.69668 12.1915 6.79045C12.0977 6.88421 12.0451 7.01139 12.0451 7.144C12.0451 7.27661 12.0977 7.40378 12.1915 7.49755C12.2853 7.59132 12.4125 7.644 12.5451 7.644H12.5621C13.4741 7.709 14.1381 8.013 14.6031 8.512C15.0801 9.026 15.3271 9.665 15.3081 10.455C15.305 10.5876 15.3548 10.716 15.4464 10.8119C15.538 10.9078 15.664 10.9634 15.7966 10.9665C15.9292 10.9695 16.0576 10.9198 16.1535 10.8282C16.2494 10.7366 16.305 10.6106 16.3081 10.478C16.3321 9.441 15.9981 8.546 15.3361 7.832V7.83C14.6591 7.104 13.7301 6.72 12.6121 6.645L12.5951 6.643L12.5451 6.644ZM12.5261 8.319C12.4591 8.3131 12.3917 8.32073 12.3278 8.34146C12.2639 8.36219 12.2049 8.39558 12.1542 8.43964C12.1035 8.4837 12.0622 8.53752 12.0327 8.5979C12.0033 8.65827 11.9863 8.72396 11.9828 8.79105C11.9793 8.85813 11.9894 8.92523 12.0124 8.98834C12.0354 9.05145 12.0709 9.10928 12.1167 9.15837C12.1626 9.20746 12.2178 9.2468 12.2792 9.27406C12.3406 9.30131 12.4069 9.31592 12.4741 9.317C12.8921 9.339 13.1591 9.465 13.3271 9.634C13.4961 9.804 13.6221 10.077 13.6451 10.504C13.6463 10.5711 13.6611 10.6373 13.6884 10.6985C13.7158 10.7598 13.7552 10.815 13.8043 10.8607C13.8534 10.9064 13.9113 10.9418 13.9743 10.9647C14.0374 10.9876 14.1045 10.9976 14.1715 10.994C14.2385 10.9904 14.3041 10.9734 14.3644 10.944C14.4247 10.9145 14.4785 10.8732 14.5225 10.8226C14.5665 10.7719 14.5998 10.7129 14.6206 10.649C14.6413 10.5852 14.6489 10.5179 14.6431 10.451C14.6111 9.851 14.4231 9.321 14.0381 8.931C13.6511 8.541 13.1241 8.351 12.5261 8.319Z" fill="#b4802e"/>
</svg>
